<svg width="371" height="370" viewBox="0 0 371 370" fill="none" xmlns="http://www.w3.org/2000/svg">
<path d="M185.5 34.6875C155.691 34.6875 126.551 43.5032 101.765 60.0197C76.9796 76.5363 57.6616 100.012 46.2541 127.478C34.8466 154.944 31.8618 185.167 37.6773 214.325C43.4929 243.482 57.8474 270.265 78.9258 291.287C100.004 312.309 126.86 326.624 156.096 332.424C185.333 338.224 215.637 335.247 243.178 323.871C270.718 312.494 294.257 293.228 310.818 268.509C327.379 243.79 336.219 214.729 336.219 185C336.177 145.148 320.284 106.939 292.028 78.7595C263.772 50.5795 225.46 34.7296 185.5 34.6875ZM185.5 312.188C160.277 312.188 135.62 304.728 114.648 290.753C93.6751 276.777 77.3291 256.913 67.6766 233.673C58.024 210.432 55.4985 184.859 60.4193 160.187C65.3401 135.515 77.4863 112.852 95.3219 95.0649C113.157 77.2774 135.881 65.1639 160.62 60.2564C185.359 55.3488 211.001 57.8676 234.304 67.4941C257.607 77.1206 277.525 93.4225 291.538 114.338C305.552 135.254 313.031 159.845 313.031 185C312.993 218.72 299.544 251.049 275.636 274.893C251.727 298.737 219.312 312.149 185.5 312.188ZM140.676 144.907C147.228 157.261 150.653 171.025 150.653 185C150.653 198.975 147.228 212.739 140.676 225.093C139.983 226.468 139.022 227.691 137.849 228.69C136.676 229.689 135.315 230.445 133.845 230.914C132.376 231.382 130.827 231.553 129.29 231.416C127.754 231.28 126.26 230.839 124.896 230.12C123.532 229.4 122.326 228.417 121.349 227.227C120.371 226.036 119.642 224.664 119.203 223.189C118.764 221.714 118.625 220.166 118.793 218.637C118.961 217.107 119.434 215.627 120.184 214.282C125.036 205.28 127.575 195.22 127.575 185C127.575 174.78 125.036 164.72 120.184 155.718C118.821 153.015 118.575 149.888 119.498 147.006C120.421 144.124 122.44 141.718 125.121 140.304C127.802 138.889 130.932 138.579 133.84 139.44C136.748 140.3 139.202 142.263 140.676 144.907ZM221.832 98.657C236.092 125.23 243.553 154.904 243.553 185.043C243.553 215.183 236.092 244.856 221.832 271.43C220.288 273.957 217.832 275.799 214.968 276.574C212.104 277.349 209.05 277 206.437 275.598C203.824 274.195 201.849 271.847 200.919 269.036C199.99 266.225 200.177 263.166 201.441 260.489C213.911 237.27 220.436 211.339 220.436 185C220.436 158.661 213.911 132.73 201.441 109.511C199.992 106.805 199.681 103.636 200.575 100.7C201.469 97.7647 203.496 95.3037 206.209 93.8586C208.923 92.4135 212.101 92.1026 215.044 92.9944C217.988 93.8861 220.455 95.9074 221.904 98.6137L221.832 98.657ZM181.254 121.782C191.662 141.248 197.106 162.969 197.106 185.029C197.106 207.089 191.662 228.81 181.254 248.276C180.554 249.643 179.588 250.857 178.412 251.848C177.236 252.839 175.874 253.586 174.406 254.047C172.938 254.507 171.392 254.671 169.859 254.53C168.327 254.388 166.838 253.943 165.479 253.222C164.121 252.5 162.92 251.516 161.946 250.327C160.973 249.137 160.247 247.767 159.811 246.294C159.375 244.822 159.236 243.278 159.405 241.752C159.573 240.227 160.044 238.749 160.791 237.407C169.413 221.287 173.923 203.299 173.923 185.029C173.923 166.759 169.413 148.771 160.791 132.651C160.044 131.308 159.573 129.831 159.405 128.305C159.236 126.779 159.375 125.235 159.811 123.763C160.247 122.291 160.973 120.921 161.946 119.731C162.92 118.542 164.121 117.558 165.479 116.836C166.838 116.115 168.327 115.67 169.859 115.528C171.392 115.387 172.938 115.551 174.406 116.011C175.874 116.472 177.236 117.219 178.412 118.21C179.588 119.201 180.554 120.415 181.254 121.782Z" fill="black"/>
</svg>
