<svg width="79" height="64" viewBox="0 0 79 64" fill="none" xmlns="http://www.w3.org/2000/svg">
<path d="M4.864 10.304H25.024C28.2667 10.304 30.912 10.7733 32.96 11.712C35.008 12.6507 36.5867 13.824 37.696 15.232C38.8053 16.64 39.552 18.176 39.936 19.84C40.3627 21.504 40.576 23.04 40.576 24.448C40.576 25.856 40.3627 27.392 39.936 29.056C39.552 30.6773 38.8053 32.192 37.696 33.6C36.5867 35.008 35.008 36.1813 32.96 37.12C30.912 38.016 28.2667 38.464 25.024 38.464H12.864V56H4.864V10.304ZM12.864 31.936H24.576C25.472 31.936 26.3893 31.808 27.328 31.552C28.2667 31.296 29.12 30.8907 29.888 30.336C30.6987 29.7387 31.3387 28.9707 31.808 28.032C32.32 27.0507 32.576 25.8347 32.576 24.384C32.576 22.8907 32.3627 21.6533 31.936 20.672C31.5093 19.6907 30.9333 18.9227 30.208 18.368C29.4827 17.7707 28.6507 17.3653 27.712 17.152C26.7733 16.9387 25.7707 16.832 24.704 16.832H12.864V31.936Z" fill="black"/>
<path d="M38.864 10.304H46.864V31.104L67.216 10.304H77.072L58.832 28.544L78.352 56H68.368L53.392 34.176L46.864 40.64V56H38.864V10.304Z" fill="black"/>
</svg>
